<?xml version="1.0" encoding="UTF-8"?>
<!DOCTYPE svg PUBLIC "-//W3C//DTD SVG 1.1//EN" "http://www.w3.org/Graphics/SVG/1.1/DTD/svg11.dtd">
<svg xmlns="http://www.w3.org/2000/svg" version="1.1" width="1080px" height="1080px" style="shape-rendering:geometricPrecision; text-rendering:geometricPrecision; image-rendering:optimizeQuality; fill-rule:evenodd; clip-rule:evenodd" xmlns:xlink="http://www.w3.org/1999/xlink">
<g><path style="opacity:1" fill="#f9faf9" d="M 153.5,434.5 C 292.167,434.5 430.833,434.5 569.5,434.5C 569.5,440.833 569.5,447.167 569.5,453.5C 436.833,453.5 304.167,453.5 171.5,453.5C 171.5,511.167 171.5,568.833 171.5,626.5C 417.5,626.5 663.5,626.5 909.5,626.5C 909.5,568.5 909.5,510.5 909.5,452.5C 815.833,452.5 722.167,452.5 628.5,452.5C 628.5,446.5 628.5,440.5 628.5,434.5C 728.167,434.5 827.833,434.5 927.5,434.5C 927.5,504.5 927.5,574.5 927.5,644.5C 669.495,644.183 411.495,644.516 153.5,645.5C 153.5,575.167 153.5,504.833 153.5,434.5 Z M 799.5,500.5 C 810.505,500.333 821.505,500.5 832.5,501C 853.59,506.613 863.924,520.447 863.5,542.5C 863.67,565.825 852.337,579.658 829.5,584C 819.506,584.5 809.506,584.666 799.5,584.5C 799.5,556.5 799.5,528.5 799.5,500.5 Z M 260.5,504.5 C 268.373,521.93 276.04,539.597 283.5,557.5C 268.511,558.666 253.511,558.833 238.5,558C 246.522,540.43 253.855,522.597 260.5,504.5 Z"/></g>
<g><path style="opacity:1" fill="#f9faf9" d="M 581.5,434.5 C 593.167,434.5 604.833,434.5 616.5,434.5C 616.5,440.833 616.5,447.167 616.5,453.5C 604.833,453.5 593.167,453.5 581.5,453.5C 581.5,447.167 581.5,440.833 581.5,434.5 Z"/></g>
<g><path style="opacity:1" fill="#f9faf9" d="M 243.5,469.5 C 255.747,469.178 267.914,469.512 280,470.5C 301.46,518.415 322.626,566.415 343.5,614.5C 331.149,614.832 318.815,614.499 306.5,613.5C 302.971,605.581 299.638,597.581 296.5,589.5C 272.833,588.167 249.167,588.167 225.5,589.5C 222.362,597.581 219.029,605.581 215.5,613.5C 203.167,614.833 190.833,614.833 178.5,613.5C 200.181,565.474 221.848,517.474 243.5,469.5 Z M 260.5,504.5 C 253.855,522.597 246.522,540.43 238.5,558C 253.511,558.833 268.511,558.666 283.5,557.5C 276.04,539.597 268.373,521.93 260.5,504.5 Z"/></g>
<g><path style="opacity:1" fill="#f9faf9" d="M 348.5,469.5 C 359.833,469.5 371.167,469.5 382.5,469.5C 382.5,507.5 382.5,545.5 382.5,583.5C 406.833,583.5 431.167,583.5 455.5,583.5C 455.5,593.833 455.5,604.167 455.5,614.5C 419.833,614.5 384.167,614.5 348.5,614.5C 348.5,566.167 348.5,517.833 348.5,469.5 Z"/></g>
<g><path style="opacity:1" fill="#f9faf9" d="M 464.5,469.5 C 476.167,469.5 487.833,469.5 499.5,469.5C 499.5,507.5 499.5,545.5 499.5,583.5C 523.5,583.5 547.5,583.5 571.5,583.5C 571.5,593.833 571.5,604.167 571.5,614.5C 535.833,614.5 500.167,614.5 464.5,614.5C 464.5,566.167 464.5,517.833 464.5,469.5 Z"/></g>
<g><path style="opacity:1" fill="#f9faf9" d="M 580.5,469.5 C 592.167,469.5 603.833,469.5 615.5,469.5C 615.5,517.833 615.5,566.167 615.5,614.5C 603.833,614.5 592.167,614.5 580.5,614.5C 580.5,566.167 580.5,517.833 580.5,469.5 Z"/></g>
<g><path style="opacity:1" fill="#f9faf9" d="M 636.5,469.5 C 673.5,469.5 710.5,469.5 747.5,469.5C 747.5,479.167 747.5,488.833 747.5,498.5C 721.833,498.5 696.167,498.5 670.5,498.5C 670.5,508.167 670.5,517.833 670.5,527.5C 694.833,527.5 719.167,527.5 743.5,527.5C 743.5,536.833 743.5,546.167 743.5,555.5C 719.167,555.5 694.833,555.5 670.5,555.5C 670.5,565.5 670.5,575.5 670.5,585.5C 696.833,585.5 723.167,585.5 749.5,585.5C 749.5,595.167 749.5,604.833 749.5,614.5C 711.833,614.5 674.167,614.5 636.5,614.5C 636.5,566.167 636.5,517.833 636.5,469.5 Z"/></g>
<g><path style="opacity:1" fill="#f9faf9" d="M 764.5,469.5 C 789.19,469.129 813.857,469.629 838.5,471C 877.847,478.519 897.847,502.352 898.5,542.5C 898.56,575.253 883.56,597.753 853.5,610C 847.617,611.843 841.617,613.177 835.5,614C 811.836,614.5 788.169,614.667 764.5,614.5C 764.5,566.167 764.5,517.833 764.5,469.5 Z M 799.5,500.5 C 799.5,528.5 799.5,556.5 799.5,584.5C 809.506,584.666 819.506,584.5 829.5,584C 852.337,579.658 863.67,565.825 863.5,542.5C 863.924,520.447 853.59,506.613 832.5,501C 821.505,500.5 810.505,500.333 799.5,500.5 Z"/></g>
</svg>
